<?xml version="1.0" encoding="UTF-8"?> <svg xmlns="http://www.w3.org/2000/svg" width="481" height="481" viewBox="0 0 481 481" fill="none"><path d="M240.5 0C373.324 0 481 107.676 481 240.5C481 373.324 373.324 481 240.5 481C107.676 481 0 373.324 0 240.5C0 107.676 107.676 0 240.5 0ZM382.143 149.737C373.713 141.375 360.1 141.428 351.737 149.857L216.964 285.705L152.947 231.138C143.911 223.435 130.341 224.516 122.638 233.553C114.935 242.589 116.016 256.159 125.053 263.862L204.241 331.362L219.412 344.294L233.451 330.143L382.263 180.143C390.625 171.713 390.572 158.1 382.143 149.737Z" fill="#F5FF82"></path></svg> 